<svg width="32" height="32" viewBox="0 0 32 32" fill="none" xmlns="http://www.w3.org/2000/svg">
<g clip-path="url(#clip0_1_1947)">
<path d="M15.2535 10.5734C19.633 12.1191 24.356 12.0332 28.6925 10.3587C28.7355 8.59833 28.2632 6.83794 27.4474 5.2493L27.018 4.39058C26.8892 4.43351 26.7175 4.51939 26.6316 4.60526C22.6814 6.49446 18.2161 6.75208 14.0513 5.24931C11.1316 4.21884 7.95431 4.47645 5.20639 5.85041L4.34767 6.27977C4.3906 6.40858 4.47649 6.58032 4.56236 6.6662C5.07759 7.78254 5.50695 8.98476 5.8075 10.2299C8.81304 9.37118 12.1621 9.45705 15.2535 10.5734Z" fill="#22C55E"/>
<path d="M4.56237 23.4972L5.50696 22.982C7.42094 22.025 9.53242 21.5617 11.6274 21.6228C12.9162 21.6604 14.1988 21.8964 15.4252 22.3379C15.8248 22.4797 16.2256 22.6099 16.6274 22.7285V27.3051C14.965 26.9961 13.2821 26.9519 11.6274 27.1649C9.91093 27.3859 8.22477 27.8836 6.6233 28.6496C6.53743 28.7354 6.36568 28.8213 6.23687 28.8642L5.80751 28.0055C5.07759 26.5886 4.64824 25.0429 4.56237 23.4972Z" fill="#22C55E"/>
<path d="M5.07746 19.5471C8.72704 18.0443 12.806 17.9155 16.5414 19.2465C19.9764 20.4487 23.6259 20.6634 27.0608 19.8906C27.0179 17.9584 27.2755 16.0692 27.9625 14.18C23.4542 15.5111 18.6024 15.3823 14.0941 13.7936C11.5179 12.849 8.68411 12.849 6.10793 13.7077C6.15087 15.554 5.80739 17.4432 5.16335 19.2894C5.16335 19.2894 5.1204 19.4183 5.07746 19.5471Z" fill="#22C55E"/>
</g>
<defs>
<clipPath id="clip0_1_1947">
<rect width="32" height="32" fill="white"/>
</clipPath>
</defs>
</svg>
